<?xml version="1.0" ?><svg width="80px" height="80px" viewBox="0 0 80 80" data-name="Layer 1" id="Layer_1" xmlns="http://www.w3.org/2000/svg"><defs><style>.cls-1{fill:#08c416;}.cls-2{fill:#07ad07;}.cls-3{fill:#f4f4f4;}.cls-4{fill:#d6d6d6;}.cls-5,.cls-7{fill:none;}.cls-5,.cls-6,.cls-7{stroke:#000;stroke-linejoin:round;stroke-width:4px;}.cls-5,.cls-6{stroke-linecap:round;}.cls-6{fill:#3a3a3a;}</style></defs><title/><path class="cls-1" d="M47.4,35.8l-1.28-.96a4,4,0,0,1-1.4718-2.1952l-2.2792-8.7822a2.3711,2.3711,0,0,1-.3613.0963A2.1474,2.1474,0,0,1,41.6,24H38.4a2.1474,2.1474,0,0,1-.4078-.0411,2.3711,2.3711,0,0,1-.3613-.0963l-2.2792,8.7822A4,4,0,0,1,33.88,34.84l-1.28.96A4,4,0,0,0,31,39V58a4,4,0,0,0,4,4H45a4,4,0,0,0,4-4V39A4,4,0,0,0,47.4,35.8Z"/><path class="cls-2" d="M47.4,35.8l-1.28-.96a4,4,0,0,1-1.4718-2.1952l-1.3418-6.0319L40,25.16C40,38.1276,43.629,36.8871,44,39V58a4,4,0,0,1-4,4h5a4,4,0,0,0,4-4V39A4,4,0,0,0,47.4,35.8Z"/><rect class="cls-3" height="11" width="18" x="31" y="41"/><rect class="cls-4" height="11" width="5" x="44" y="41"/><path class="cls-5" d="M47.4,35.8l-1.28-.96a4,4,0,0,1-1.4718-2.1952l-2.2792-8.7822H37.6309l-2.2792,8.7822A4,4,0,0,1,33.88,34.84l-1.28.96A4,4,0,0,0,31,39V58a4,4,0,0,0,4,4H45a4,4,0,0,0,4-4V39A4,4,0,0,0,47.4,35.8Z"/><rect class="cls-6" height="6" rx="2.4" width="8" x="36" y="18"/><line class="cls-7" x1="31" x2="49" y1="41" y2="41"/><line class="cls-7" x1="31" x2="49" y1="52" y2="52"/><polyline class="cls-5" points="5.055 17.84 13.99 16.581 15.256 25.527"/><path class="cls-5" d="M10.5653,58.9294A34.9876,34.9876,0,0,1,13.99,16.5809"/><polyline class="cls-5" points="17.84 74.945 16.581 66.01 25.527 64.744"/><path class="cls-5" d="M58.9294,69.4347A34.9876,34.9876,0,0,1,16.5809,66.01"/><polyline class="cls-5" points="74.945 62.16 66.01 63.419 64.744 54.473"/><path class="cls-5" d="M69.4347,21.0706A34.9876,34.9876,0,0,1,66.01,63.4191"/><polyline class="cls-5" points="62.16 5.055 63.419 13.99 54.473 15.256"/><path class="cls-5" d="M21.0706,10.5653A34.9876,34.9876,0,0,1,63.4191,13.99"/></svg>