<?xml version="1.0" ?><svg width="80px" height="80px" viewBox="0 0 80 80" data-name="Layer 1" id="Layer_1" xmlns="http://www.w3.org/2000/svg"><defs><style>.cls-1{fill:#f4f4f4;}.cls-2{fill:#d6d6d6;}.cls-3,.cls-4{fill:none;stroke:#000;stroke-linecap:round;stroke-width:4px;}.cls-3{stroke-linejoin:round;}.cls-4{stroke-miterlimit:10;}</style></defs><title/><path class="cls-1" d="M57,55V29.5A6.5,6.5,0,0,0,50.5,23h-21A6.5,6.5,0,0,0,23,29.5V55l2,2,3-3,3,3,3-3,3,3,3-3,3,3,3-3,3,3,3-3,3,3Z"/><path class="cls-2" d="M50.5,23h-6A6.5,6.5,0,0,1,51,29.5V55l1-1,3,3,2-2V29.5A6.5,6.5,0,0,0,50.5,23Z"/><path class="cls-3" d="M57,55V29.5A6.5,6.5,0,0,0,50.5,23h-21A6.5,6.5,0,0,0,23,29.5V55l2,2,3-3,3,3,3-3,3,3,3-3,3,3,3-3,3,3,3-3,3,3Z"/><line class="cls-4" x1="31" x2="49" y1="38" y2="38"/><line class="cls-4" x1="31" x2="40" y1="31" y2="31"/><line class="cls-4" x1="31" x2="49" y1="45" y2="45"/><polyline class="cls-3" points="5.055 17.84 13.99 16.581 15.256 25.527"/><path class="cls-3" d="M10.5653,58.9294A34.9876,34.9876,0,0,1,13.99,16.5809"/><polyline class="cls-3" points="17.84 74.945 16.581 66.01 25.527 64.744"/><path class="cls-3" d="M58.9294,69.4347A34.9876,34.9876,0,0,1,16.5809,66.01"/><polyline class="cls-3" points="74.945 62.16 66.01 63.419 64.744 54.473"/><path class="cls-3" d="M69.4347,21.0706A34.9876,34.9876,0,0,1,66.01,63.4191"/><polyline class="cls-3" points="62.16 5.055 63.419 13.99 54.473 15.256"/><path class="cls-3" d="M21.0706,10.5653A34.9876,34.9876,0,0,1,63.4191,13.99"/></svg>