<?xml version="1.0" ?><svg width="80px" height="80px" viewBox="0 0 80 80" data-name="Layer 1" id="Layer_1" xmlns="http://www.w3.org/2000/svg"><defs><style>.cls-1{fill:#76d1ff;}.cls-2{fill:#5ac0e0;}.cls-3,.cls-6{fill:#1f8fff;}.cls-4{fill:#0083cc;}.cls-5,.cls-7{fill:none;}.cls-5,.cls-6,.cls-7{stroke:#000;stroke-linejoin:round;stroke-width:4px;}.cls-5,.cls-6{stroke-linecap:round;}</style></defs><title/><path class="cls-1" d="M31,33V58.83a3.1144,3.1144,0,0,0,2.8387,3.1654A3,3,0,0,0,37,59a3,3,0,0,0,6,0,3,3,0,0,0,3.1613,2.9957A3.1144,3.1144,0,0,0,49,58.83V33a9,9,0,0,0-9-9h0A9,9,0,0,0,31,33Z"/><path class="cls-2" d="M40,24a8.986,8.986,0,0,0-2.5.3593A8.9982,8.9982,0,0,1,44,33V58.83a3.2851,3.2851,0,0,1-.5258,1.7689,2.9875,2.9875,0,0,0,2.6871,1.3965A3.1144,3.1144,0,0,0,49,58.83V33A9,9,0,0,0,40,24Z"/><rect class="cls-3" height="11" width="18" x="31" y="41"/><rect class="cls-4" height="11" width="5" x="44" y="41"/><path class="cls-5" d="M31,33V58.83a3.1144,3.1144,0,0,0,2.8387,3.1654A3,3,0,0,0,37,59a3,3,0,0,0,6,0,3,3,0,0,0,3.1613,2.9957A3.1144,3.1144,0,0,0,49,58.83V33a9,9,0,0,0-9-9h0A9,9,0,0,0,31,33Z"/><rect class="cls-6" height="6" rx="2.4" width="8" x="36" y="18"/><line class="cls-7" x1="31" x2="49" y1="41" y2="41"/><line class="cls-7" x1="31" x2="49" y1="52" y2="52"/><polyline class="cls-5" points="5.055 17.84 13.99 16.581 15.256 25.527"/><path class="cls-5" d="M10.5653,58.9294A34.9876,34.9876,0,0,1,13.99,16.5809"/><polyline class="cls-5" points="17.84 74.945 16.581 66.01 25.527 64.744"/><path class="cls-5" d="M58.9294,69.4347A34.9876,34.9876,0,0,1,16.5809,66.01"/><polyline class="cls-5" points="74.945 62.16 66.01 63.419 64.744 54.473"/><path class="cls-5" d="M69.4347,21.0706A34.9876,34.9876,0,0,1,66.01,63.4191"/><polyline class="cls-5" points="62.16 5.055 63.419 13.99 54.473 15.256"/><path class="cls-5" d="M21.0706,10.5653A34.9876,34.9876,0,0,1,63.4191,13.99"/></svg>