<?xml version="1.0" ?><svg width="80px" height="80px" viewBox="0 0 80 80" data-name="Layer 1" id="Layer_1" xmlns="http://www.w3.org/2000/svg"><defs><style>.cls-1{fill:#48ef48;}.cls-2{fill:#2dd32d;}.cls-3,.cls-4,.cls-5{fill:none;stroke:#000;stroke-width:4px;}.cls-3,.cls-5{stroke-linecap:round;}.cls-3,.cls-4{stroke-miterlimit:10;}.cls-5{stroke-linejoin:round;}</style></defs><title/><path class="cls-1" d="M66,16H14a4,4,0,0,0-4,4v6a4,4,0,0,0,4,4h4V67a8,8,0,0,0,8,8H54a8,8,0,0,0,8-8V30h4a4,4,0,0,0,4-4V20A4,4,0,0,0,66,16Z"/><path class="cls-2" d="M66,16H60a4,4,0,0,1,4,4v6a4,4,0,0,1-4,4H56V67a8,8,0,0,1-8,8h6a8,8,0,0,0,8-8V30h4a4,4,0,0,0,4-4V20A4,4,0,0,0,66,16Z"/><path class="cls-3" d="M23,10V9a4,4,0,0,1,4-4H52a4,4,0,0,1,4,4v1"/><line class="cls-3" x1="29" x2="29" y1="22" y2="29.9"/><line class="cls-3" x1="40" x2="40" y1="22" y2="29.9"/><line class="cls-3" x1="51" x2="51" y1="22" y2="24"/><rect class="cls-4" height="14" rx="4" width="60" x="10" y="16"/><path class="cls-3" d="M18,22V67a8,8,0,0,0,8,8H54a8,8,0,0,0,8-8V22"/><path class="cls-3" d="M52.6029,57.375l3.1483,5.4531a1.4483,1.4483,0,0,1-1.2543,2.1724L38.0034,65"/><polyline class="cls-5" points="42.003 61 38.003 65 42.003 69"/><path class="cls-3" d="M35.6077,43.1658l3.1484-5.4531a1.4483,1.4483,0,0,1,2.5085,0l8.2463,14.284"/><polyline class="cls-5" points="44.047 50.533 49.511 51.997 50.975 46.533"/><path class="cls-3" d="M31.8,64.9886H25.5031a1.4484,1.4484,0,0,1-1.2543-2.1725L32.496,48.5327"/><polyline class="cls-5" points="33.96 53.997 32.496 48.533 27.032 49.997"/></svg>